<svg xmlns="http://www.w3.org/2000/svg" width="44" height="44" viewBox="0 0 44 44" fill="none">
  <defs>
    <linearGradient id="g" x1="6" y1="6" x2="38" y2="38" gradientUnits="userSpaceOnUse">
      <stop stop-color="#7C3AED"/>
      <stop offset="1" stop-color="#22C55E"/>
    </linearGradient>
    <filter id="s" x="-20%" y="-20%" width="140%" height="140%">
      <feDropShadow dx="0" dy="6" stdDeviation="6" flood-color="rgba(0,0,0,.45)"/>
    </filter>
  </defs>
  <g filter="url(#s)">
    <path d="M22 4C12.0589 4 4 12.0589 4 22C4 31.9411 12.0589 40 22 40C31.9411 40 40 31.9411 40 22C40 12.0589 31.9411 4 22 4Z" stroke="url(#g)" stroke-width="4"/>
    <path d="M14.5 22.2C16.2 17.2 20.1 15 24 15C27.9 15 30.8 17.3 31.8 20.7C33 24.7 31.4 28.8 27.8 30.8C24.3 32.7 19.9 31.9 17.3 29.1" stroke="url(#g)" stroke-width="3.2" stroke-linecap="round"/>
    <path d="M13.6 26.8L17.7 29.1L16.2 24.7" fill="none" stroke="url(#g)" stroke-width="3.2" stroke-linecap="round" stroke-linejoin="round"/>
  </g>
</svg>
